<?xml version="1.0" standalone="no"?>
<!DOCTYPE svg PUBLIC "-//W3C//DTD SVG 20010904//EN"
 "http://www.w3.org/TR/2001/REC-SVG-20010904/DTD/svg10.dtd">
<svg version="1.0" xmlns="http://www.w3.org/2000/svg"
 width="720.000000pt" height="720.000000pt" viewBox="0 0 720.000000 720.000000"
 preserveAspectRatio="xMidYMid meet">
<metadata>
Created by potrace 1.14, written by Peter Selinger 2001-2017
</metadata>
<g transform="translate(0.000000,720.000000) scale(0.100000,-0.100000)"
fill="#000000" stroke="none">
<path d="M4565 7168 c-4 -18 -7 -36 -6 -40 2 -13 -54 -9 -67 4 -20 20 -24 2
-9 -34 15 -36 6 -75 -14 -62 -18 11 -49 -28 -49 -61 0 -18 -7 -38 -16 -46 -25
-20 -44 -65 -44 -102 0 -34 -18 -58 -52 -70 -10 -4 -18 -13 -18 -22 0 -8 -6
-15 -14 -15 -9 0 -12 -7 -9 -20 5 -17 7 -18 17 -6 14 19 92 24 108 7 21 -20
-28 -54 -69 -48 -37 6 -52 -7 -50 -44 2 -20 10 -30 35 -39 20 -7 32 -18 32
-30 0 -10 5 -22 10 -25 6 -4 3 -17 -10 -34 -10 -16 -18 -30 -15 -32 2 -3 -21
-22 -50 -44 -49 -35 -53 -41 -40 -55 8 -9 12 -20 8 -23 -3 -4 3 -7 15 -7 12 0
22 -5 22 -12 0 -6 7 -20 17 -30 14 -16 14 -22 3 -43 -7 -14 -19 -25 -27 -25
-7 0 -13 -7 -13 -15 0 -9 -6 -18 -14 -21 -8 -3 -12 -12 -9 -20 3 -8 -6 -18
-24 -26 -15 -7 -30 -14 -32 -15 -3 -2 8 -16 25 -31 16 -15 34 -39 41 -53 10
-23 9 -30 -9 -49 -25 -27 -30 -88 -7 -103 24 -15 53 -2 41 19 -7 13 -3 23 15
40 38 36 62 39 87 14 l21 -21 -27 -23 c-16 -12 -28 -26 -28 -32 0 -6 -11 -16
-25 -22 -14 -6 -25 -16 -25 -22 0 -13 63 -13 76 0 8 8 15 6 24 -5 11 -13 11
-21 2 -36 -10 -16 -10 -24 1 -39 13 -19 14 -19 50 5 20 14 40 25 45 25 15 0
44 38 37 49 -3 6 1 11 9 11 9 0 16 6 16 14 0 7 7 19 15 26 16 13 12 25 -8 25
-7 0 -12 6 -12 13 0 8 -9 20 -19 28 -11 8 -14 14 -8 14 10 0 10 3 0 14 -11 12
-15 12 -29 0 -32 -29 -60 -12 -93 55 -20 42 -21 38 9 45 28 7 26 23 -12 74
-19 25 -23 40 -18 62 6 27 4 30 -20 30 -18 0 -25 4 -21 13 3 6 9 20 12 30 4 9
12 17 18 17 6 0 18 9 26 20 16 23 40 26 58 8 9 -9 16 -7 32 10 12 12 25 22 30
22 6 0 19 9 30 20 15 15 25 17 42 11 35 -13 52 -96 22 -108 -21 -8 -44 21 -37
46 8 31 -12 32 -44 2 -17 -15 -52 -34 -77 -41 -49 -13 -61 -41 -21 -49 11 -2
34 -14 51 -27 28 -21 33 -22 44 -9 17 21 33 19 58 -8 38 -40 26 -117 -18 -117
-9 0 -21 -5 -28 -12 -9 -9 -5 -18 19 -40 16 -15 33 -28 37 -28 7 0 21 30 36
73 4 13 14 17 33 15 22 -2 29 -9 31 -31 2 -16 -1 -34 -8 -41 -8 -10 -7 -15 5
-20 11 -4 14 -2 9 6 -5 8 -2 9 9 5 10 -4 29 -2 43 4 33 12 57 -2 134 -79 30
-30 90 -81 132 -114 43 -32 83 -68 89 -80 16 -30 13 -107 -6 -128 -8 -9 -15
-24 -15 -33 0 -19 -28 -49 -40 -42 -5 3 -19 -5 -33 -17 -21 -20 -24 -31 -23
-96 1 -51 -2 -71 -11 -68 -6 3 -14 -2 -17 -10 -3 -8 -14 -14 -24 -14 -23 0
-67 -56 -51 -66 8 -5 6 -10 -5 -16 -27 -15 -18 -42 20 -60 30 -14 36 -14 41
-2 3 8 18 14 35 14 26 0 29 -3 23 -22 -4 -13 -13 -36 -21 -52 -8 -16 -14 -37
-14 -48 0 -10 -9 -27 -20 -38 -20 -20 -19 -20 35 -61 30 -22 60 -54 67 -70 7
-16 20 -29 29 -29 9 0 32 -19 51 -42 20 -24 59 -65 88 -93 87 -82 94 -89 120
-125 14 -19 49 -59 77 -90 75 -80 168 -199 242 -310 54 -80 204 -283 221 -300
3 -3 23 -27 45 -55 73 -92 292 -329 406 -440 122 -118 163 -156 305 -280 50
-44 121 -107 158 -140 71 -62 116 -133 116 -182 -1 -37 -23 -65 -106 -129
-157 -121 -265 -154 -509 -154 l-143 0 -49 -38 c-62 -50 -244 -236 -318 -327
-32 -38 -83 -97 -115 -130 -31 -33 -69 -76 -84 -95 -57 -71 -113 -135 -172
-199 -34 -36 -111 -120 -171 -186 -141 -153 -306 -311 -400 -381 l-74 -56 28
-25 c15 -13 42 -31 58 -40 17 -8 37 -21 45 -29 22 -18 148 -44 275 -56 76 -7
154 -6 251 1 198 15 382 14 457 -3 34 -8 107 -24 162 -36 55 -12 145 -33 200
-47 216 -56 291 -56 351 -3 66 57 216 280 253 375 13 33 50 105 81 160 32 56
72 130 90 165 18 36 41 76 51 89 25 32 24 62 -6 120 -38 76 -63 147 -91 260
-27 109 -27 125 -1 256 20 96 26 366 13 570 l-8 140 -57 56 c-59 59 -188 159
-284 221 -119 77 -354 275 -492 413 -69 69 -206 228 -250 289 -16 24 -53 71
-80 107 -53 67 -77 100 -110 153 -29 47 -174 245 -212 290 -18 22 -33 42 -33
45 0 4 33 7 73 8 39 0 117 4 172 7 l100 7 -44 -22 c-34 -16 -66 -22 -133 -23
-147 -3 -138 -32 27 -81 53 -16 127 -29 180 -32 71 -4 95 -10 112 -26 12 -11
20 -23 18 -27 -3 -4 7 -15 21 -25 20 -13 24 -22 20 -41 -5 -19 -3 -24 13 -24
24 0 71 -20 71 -31 0 -4 -9 -11 -20 -14 -38 -12 -19 -43 23 -36 12 2 8 -57 -5
-65 -8 -5 -2 -11 17 -16 18 -4 34 -3 42 4 18 14 55 -18 48 -42 -3 -11 4 -21
22 -31 16 -8 31 -18 36 -24 4 -6 15 0 28 15 11 14 27 33 34 43 20 24 42 21 71
-8 20 -20 23 -29 14 -44 -11 -21 -76 -45 -93 -34 -6 4 -8 -5 -5 -21 4 -22 1
-29 -16 -36 -20 -8 -20 -8 -2 -16 14 -5 23 -2 34 14 14 22 15 22 34 -18 17
-33 24 -40 42 -35 13 4 16 3 9 -2 -8 -5 -9 -14 -3 -23 5 -9 5 -19 -1 -26 -7
-8 -2 -14 15 -18 18 -4 28 -16 34 -38 6 -23 19 -38 47 -53 48 -25 66 -51 45
-65 -8 -6 -23 -8 -32 -6 -10 2 -18 0 -18 -5 0 -5 7 -9 16 -9 11 0 14 -5 10
-16 -3 -8 0 -25 6 -37 7 -12 11 -25 10 -29 -1 -4 8 -10 21 -13 92 -21 103 -22
115 -8 7 7 24 13 37 13 19 0 24 6 27 33 2 26 8 33 28 35 14 2 29 8 34 12 5 5
17 5 28 -1 24 -13 52 -4 42 13 -5 8 -2 9 9 5 9 -3 19 -2 23 4 4 7 10 6 19 -1
18 -15 58 9 49 30 -4 8 -7 29 -8 45 -1 23 -6 31 -24 33 -24 4 -46 34 -34 47 4
5 1 5 -6 1 -21 -12 -53 23 -42 45 16 28 12 79 -5 79 -8 0 -15 7 -15 15 0 8 4
15 10 15 5 0 7 7 4 15 -13 33 6 85 36 100 17 9 30 21 30 29 0 7 9 21 20 31 11
10 20 24 20 30 0 7 6 15 14 18 12 5 13 -1 9 -29 -7 -44 15 -46 51 -3 14 17 26
25 26 18 0 -8 5 -8 18 3 9 9 23 13 29 11 17 -6 29 25 15 39 -8 8 -13 7 -18 -5
-4 -10 -17 -17 -33 -17 -20 0 -22 3 -11 10 12 8 12 11 -3 28 -9 10 -17 24 -17
30 0 20 54 13 80 -10 14 -13 34 -23 45 -22 49 3 50 4 25 25 l-25 21 28 -6 27
-6 0 68 c0 56 -4 72 -20 87 l-20 18 21 23 c19 20 21 30 15 91 -4 37 -7 86 -7
108 1 34 -4 43 -28 56 -31 18 -37 53 -11 69 12 8 11 10 -6 10 -13 0 -26 -12
-37 -35 -19 -39 -41 -45 -57 -15 -21 40 46 89 123 90 l27 0 0 170 c0 101 -4
170 -9 170 -46 0 -258 -34 -306 -49 -33 -11 -82 -22 -110 -26 -27 -3 -66 -10
-85 -15 -19 -5 -72 -16 -118 -26 -46 -10 -85 -21 -88 -26 -3 -4 -16 -8 -28 -8
-13 0 -48 -7 -77 -16 -109 -33 -234 -76 -244 -83 -5 -4 -43 -18 -83 -31 -41
-13 -90 -31 -110 -42 -20 -10 -52 -18 -72 -18 -37 0 -52 -4 -164 -43 -98 -35
-119 -22 -73 41 37 50 69 70 169 108 115 44 159 59 373 123 94 28 184 56 202
61 29 10 312 68 606 125 70 13 136 29 147 35 10 5 30 10 44 10 22 0 26 4 26
30 0 35 4 34 -69 16 -31 -8 -166 -38 -301 -65 -427 -89 -457 -96 -825 -212
-337 -107 -357 -105 -266 27 28 41 51 78 51 81 0 11 62 105 114 173 199 260
457 480 656 561 36 15 90 37 120 49 30 12 60 24 67 27 6 2 -5 -13 -26 -35 -64
-67 -76 -103 -75 -222 0 -79 4 -113 17 -137 10 -18 19 -33 20 -33 2 0 20 9 42
20 50 26 81 25 95 0 16 -31 3 -60 -31 -67 -40 -8 -36 -23 15 -55 103 -66 258
-56 357 23 l39 31 0 203 0 204 -37 37 c-45 43 -103 72 -167 80 -26 4 -49 10
-51 15 -6 9 69 38 179 70 l76 22 0 500 c0 411 -2 498 -13 494 -8 -3 -40 -22
-71 -44 -32 -21 -72 -47 -90 -57 -17 -11 -76 -52 -131 -91 -135 -96 -235 -151
-246 -133 -5 7 -9 16 -9 19 0 4 -11 10 -25 13 -38 10 -32 36 9 36 49 0 61 20
39 63 -12 23 -30 39 -53 47 -80 29 -99 59 -59 93 27 24 49 18 69 -17 21 -39
37 -43 51 -12 7 14 16 26 21 26 16 0 8 15 -14 25 -13 6 -27 20 -33 33 -8 18
-18 22 -52 22 -34 0 -41 -3 -37 -15 4 -10 0 -15 -10 -15 -9 0 -19 7 -22 15 -5
13 -38 15 -213 15 -148 0 -210 -3 -219 -12 -9 -9 -12 -9 -12 0 0 9 -65 12
-264 12 -225 0 -265 -2 -270 -15 -3 -8 -10 -15 -16 -15 -5 0 -10 7 -10 15 0
13 -24 15 -154 15 -114 0 -156 -3 -160 -12 -5 -10 -7 -10 -12 0 -4 9 -62 12
-237 12 l-232 0 -28 -45 c-29 -45 -41 -52 -65 -37 -9 6 -5 12 14 20 17 9 24
18 20 28 -3 9 -6 20 -6 25 0 5 -20 9 -44 9 -41 0 -44 -2 -51 -32z m-8 -123
c-4 -8 -11 -15 -17 -15 -7 0 -7 6 0 21 13 23 26 19 17 -6z m1243 -50 c19 -20
21 -27 10 -40 -20 -25 -59 -19 -66 10 -6 24 9 55 25 55 4 0 18 -11 31 -25z
m-1269 -27 c10 -18 8 -24 -6 -34 -25 -19 -57 -11 -66 15 -7 17 -4 24 14 31 35
14 45 12 58 -12z m1471 -2 c6 -14 8 -32 5 -40 -7 -19 -38 -21 -55 -4 -13 13
-16 50 -5 61 14 15 44 6 55 -17z m-996 -18 c4 -6 0 -16 -9 -23 -10 -7 -17 -21
-17 -33 0 -23 -18 -32 -65 -32 -45 0 -65 32 -40 60 14 15 28 18 69 15 28 -2
45 -2 39 1 -7 3 -13 10 -13 15 0 13 27 11 36 -3z m119 -67 c10 -18 -17 -23
-33 -7 -15 15 -15 16 5 16 12 0 24 -4 28 -9z m-621 -26 c18 -13 18 -16 4 -32
-9 -10 -18 -27 -20 -38 -7 -39 -33 -22 -36 24 -4 57 15 74 52 46z m1965 -74
c12 -8 12 -12 2 -25 -11 -13 -10 -15 8 -11 30 6 27 -21 -5 -42 -25 -16 -27
-16 -39 0 -12 16 -13 16 -26 0 -11 -13 -11 -17 -1 -20 19 -7 14 -19 -12 -31
-19 -8 -27 -8 -36 3 -16 20 -6 43 21 47 23 3 33 15 49 61 10 29 17 32 39 18z
m81 -15 c0 -3 -4 -8 -10 -11 -5 -3 -10 -1 -10 4 0 6 5 11 10 11 6 0 10 -2 10
-4z m-1170 -186 c0 -21 -15 -27 -25 -10 -7 12 2 30 16 30 5 0 9 -9 9 -20z
m-892 -39 c-4 -22 -68 -29 -68 -7 0 8 7 19 16 24 24 13 56 3 52 -17z m722 -17
c0 -8 -8 -18 -17 -21 -10 -4 -21 -10 -24 -15 -8 -12 -39 1 -39 16 0 13 61 46
73 39 4 -2 7 -11 7 -19z m178 -19 c-4 -18 6 -32 39 -61 23 -21 43 -43 43 -50
0 -8 6 -11 15 -8 9 4 15 0 15 -10 0 -9 -8 -16 -21 -16 -11 0 -17 -4 -14 -10 3
-5 25 -10 49 -10 23 0 47 -5 54 -12 6 -6 17 -13 24 -14 44 -7 68 -25 68 -49 0
-22 4 -25 23 -21 12 3 16 3 10 0 -7 -3 -13 -18 -13 -34 0 -15 -7 -33 -15 -40
-13 -11 -13 -14 2 -25 12 -9 24 -10 35 -4 9 5 19 5 22 1 8 -14 -22 -51 -62
-76 -21 -13 -66 -49 -102 -81 -36 -31 -112 -98 -169 -149 -58 -50 -117 -104
-133 -119 -29 -30 -30 -29 -42 24 -3 15 -29 47 -62 74 -56 48 -72 74 -80 130
-3 17 -10 55 -16 85 -6 30 -13 73 -15 95 -3 22 -9 45 -13 50 -14 17 -23 85
-12 85 6 0 32 -14 57 -31 41 -28 48 -30 63 -16 9 8 22 13 28 10 6 -2 14 4 18
13 8 22 -2 33 -14 14 -7 -11 -10 -8 -15 13 -4 15 -11 27 -15 27 -4 0 -24 7
-45 16 -32 13 -36 18 -24 29 27 25 57 27 76 6 18 -21 43 -28 43 -12 0 4 -9 20
-20 34 -21 27 -27 67 -10 67 6 0 16 11 22 25 14 31 50 45 132 48 24 1 43 8 49
19 15 22 30 11 25 -17z m387 -185 c11 -17 -5 -32 -21 -19 -7 6 -11 15 -8 20 7
12 21 11 29 -1z m-645 -56 c0 -8 -5 -12 -10 -9 -6 4 -8 11 -5 16 9 14 15 11
15 -7z m-490 -14 c0 -5 -5 -10 -11 -10 -5 0 -7 5 -4 10 3 6 8 10 11 10 2 0 4
-4 4 -10z m-280 -184 c0 -30 -17 -43 -33 -26 -9 9 -8 14 5 24 10 7 15 16 11
19 -3 4 -1 7 5 7 7 0 12 -11 12 -24z m2690 -76 c22 -22 26 -60 10 -91 -8 -14
-21 -19 -53 -19 -52 0 -65 8 -73 46 -13 65 69 111 116 64z m-2615 -129 c-3
-12 -13 -21 -21 -21 -17 0 -19 31 -2 48 17 17 32 -1 23 -27z m2654 -1129 c7
-13 6 -23 -1 -30 -28 -28 -63 3 -38 33 16 20 27 19 39 -3z m-176 -47 c-7 -21
-13 -19 -13 6 0 11 4 18 10 14 5 -3 7 -12 3 -20z m-615 -62 c-2 -15 -13 -37
-25 -50 -21 -20 -26 -21 -61 -10 -37 12 -70 56 -57 77 3 6 37 10 75 10 70 0
70 0 68 -27z m-363 -4 c-8 -12 -35 -12 -35 0 0 11 22 20 33 14 4 -2 5 -9 2
-14z m78 -13 c-8 -40 -13 -46 -13 -14 0 21 -4 25 -19 21 -11 -3 -21 2 -24 11
-5 12 1 15 28 14 32 -1 34 -3 28 -32z m-178 4 c-3 -5 -10 -10 -16 -10 -5 0 -9
5 -9 10 0 6 7 10 16 10 8 0 12 -4 9 -10z m105 -29 c0 -12 -20 -25 -27 -18 -7
7 6 27 18 27 5 0 9 -4 9 -9z m464 -116 c14 -22 15 -26 2 -31 -24 -9 -55 13
-49 36 7 27 27 25 47 -5z m426 0 c0 -8 -6 -15 -14 -15 -8 0 -16 7 -20 15 -4
10 1 15 14 15 11 0 20 -7 20 -15z m-200 -100 c0 -14 11 -37 25 -50 13 -14 20
-25 15 -25 -6 0 -10 -7 -10 -15 0 -24 -22 -63 -39 -69 -9 -3 -24 -11 -33 -18
-23 -17 -55 13 -64 59 -9 49 18 105 49 101 15 -2 25 4 32 20 13 29 25 28 25
-3z m-426 -22 c10 -24 -8 -37 -33 -24 -12 7 -21 15 -21 20 0 25 45 29 54 4z
m756 7 c0 -5 -4 -10 -10 -10 -5 0 -10 5 -10 10 0 6 5 10 10 10 6 0 10 -4 10
-10z m2 -87 c6 1 13 -4 15 -10 3 -8 -4 -13 -16 -13 -12 0 -21 -5 -21 -10 0
-11 -45 -9 -56 3 -4 4 -17 -15 -30 -42 -22 -46 -54 -83 -54 -65 0 5 -7 1 -14
-9 -13 -17 -15 -17 -28 2 -10 13 -12 35 -9 68 6 46 7 48 46 57 22 5 43 13 46
19 4 5 13 7 21 4 8 -3 21 -1 28 3 7 5 24 4 37 -1 13 -5 29 -8 35 -6z m-165
-315 c-3 -8 -6 -5 -6 6 -1 11 2 17 5 13 3 -3 4 -12 1 -19z m3 -173 c0 -8 -7
-15 -15 -15 -16 0 -20 12 -8 23 11 12 23 8 23 -8z"/>
<path d="M5200 6360 c0 -5 5 -10 10 -10 6 0 10 5 10 10 0 6 -4 10 -10 10 -5 0
-10 -4 -10 -10z"/>
<path d="M5196 6304 c-10 -25 -7 -34 9 -28 8 4 15 15 15 25 0 23 -16 25 -24 3z"/>
<path d="M6658 6873 c7 -3 16 -2 19 1 4 3 -2 6 -13 5 -11 0 -14 -3 -6 -6z"/>
<path d="M3190 6444 c0 -5 35 -50 78 -100 42 -50 95 -115 117 -144 22 -29 58
-76 81 -104 49 -61 149 -208 227 -332 50 -78 101 -134 123 -134 19 0 276 -138
286 -154 15 -22 7 -84 -22 -173 -57 -178 -88 -202 -318 -242 -274 -49 -545
-72 -970 -80 -478 -10 -1174 -5 -1317 9 -85 8 -357 37 -420 45 -11 1 -51 5
-90 9 -38 4 -95 11 -125 16 -121 20 -199 31 -280 40 -47 5 -168 18 -270 29
-102 11 -209 23 -237 27 l-53 7 0 -497 c0 -390 3 -496 13 -496 6 0 59 21 117
46 290 127 787 254 988 254 95 0 267 -25 332 -48 74 -26 285 -109 307 -121 10
-5 80 -39 155 -75 156 -75 159 -79 107 -151 -31 -42 -52 -55 -96 -55 -25 0
-138 -49 -130 -56 3 -3 22 2 43 12 42 18 235 30 260 16 11 -6 7 -14 -18 -39
-25 -23 -61 -39 -142 -63 -60 -17 -134 -43 -165 -57 -102 -45 -326 -158 -329
-165 -2 -5 -9 -8 -16 -8 -12 0 -74 -31 -171 -85 -27 -15 -97 -52 -155 -83
-132 -70 -140 -74 -170 -94 -60 -39 -291 -163 -380 -203 -25 -11 -61 -30 -80
-42 -19 -12 -47 -25 -62 -28 -16 -4 -28 -11 -28 -16 0 -5 -4 -9 -9 -9 -5 0
-49 -27 -98 -60 -48 -33 -92 -60 -97 -60 -4 0 -46 -24 -92 -52 l-84 -53 0
-253 0 -252 27 6 c66 15 118 37 204 85 97 55 313 159 329 159 11 0 132 53 170
75 14 8 36 20 50 26 14 6 34 16 45 22 30 15 114 56 165 79 115 52 150 69 226
107 135 67 268 136 284 146 8 5 17 10 20 11 42 10 196 87 304 153 37 22 74 41
82 41 8 0 14 4 14 8 0 4 19 18 43 30 95 51 179 97 303 168 125 71 164 86 164
64 0 -19 -31 -73 -71 -126 -22 -28 -39 -56 -39 -62 0 -6 -8 -16 -17 -21 -16
-9 -16 -12 -3 -21 13 -9 13 -11 0 -20 -12 -8 -13 -11 -1 -19 11 -7 11 -10 0
-17 -37 -24 -55 -34 -71 -40 -9 -3 -19 -12 -22 -20 -12 -30 22 -16 209 86 66
36 156 90 255 155 229 149 366 239 370 244 3 4 30 23 61 44 79 51 189 135 262
200 34 30 114 100 177 155 125 109 239 227 270 282 47 83 129 259 140 299 14
54 8 61 -61 72 -59 9 -224 86 -252 116 -22 26 -14 33 78 66 39 14 87 32 107
41 21 9 51 16 67 16 21 0 41 12 75 47 90 90 266 379 266 435 0 32 -27 63 -79
90 -23 13 -31 23 -27 36 6 19 -36 115 -78 177 -33 49 -119 123 -210 182 -37
24 -96 66 -130 92 -34 27 -76 55 -92 64 -16 8 -41 26 -54 40 -14 13 -45 37
-70 52 -25 15 -47 31 -50 35 -3 3 -27 23 -55 44 -27 20 -83 69 -122 108 -40
39 -73 67 -73 62z"/>
<path d="M4920 5109 c0 -5 5 -7 10 -4 6 3 10 8 10 11 0 2 -4 4 -10 4 -5 0 -10
-5 -10 -11z"/>
<path d="M5640 4840 c0 -5 5 -10 10 -10 6 0 10 5 10 10 0 6 -4 10 -10 10 -5 0
-10 -4 -10 -10z"/>
<path d="M105 4177 c-22 -7 -55 -20 -72 -30 l-33 -18 0 -228 0 -228 25 -13
c14 -7 25 -19 25 -27 0 -7 5 -13 10 -13 6 0 9 -3 9 -7 -3 -21 3 -28 24 -29 31
-2 58 -9 88 -23 20 -10 32 -10 47 -2 14 8 23 8 27 1 5 -8 11 -7 21 1 7 6 25 8
38 5 18 -4 25 -2 28 11 2 10 22 24 48 33 33 11 45 21 45 35 0 13 8 21 21 23
16 2 20 8 17 23 -3 10 0 19 6 19 6 0 11 12 11 26 0 17 -4 23 -12 19 -7 -4 -2
3 12 16 16 14 21 23 13 26 -8 3 -10 15 -7 32 4 18 0 33 -11 44 -9 10 -13 17
-8 18 4 0 17 2 28 4 34 7 45 -14 45 -79 0 -66 -20 -121 -69 -186 -31 -41 -72
-79 -86 -80 -6 0 -27 -9 -47 -20 -20 -10 -59 -22 -87 -26 -53 -7 -181 12 -181
27 0 5 -6 9 -13 9 -7 0 -23 9 -35 20 -26 25 -32 25 -32 1 0 -22 51 -55 112
-71 71 -20 196 -14 253 10 167 72 244 213 221 404 -13 101 -108 213 -216 255
-73 28 -204 37 -265 18z m253 -53 c15 -10 22 -25 22 -49 0 -47 -8 -64 -41 -80
-23 -12 -33 -13 -56 -3 -15 7 -33 20 -40 28 -18 22 -16 80 4 102 20 22 80 24
111 2z"/>
<path d="M3702 4098 c-7 -7 -12 -16 -12 -20 0 -15 15 -8 28 12 13 22 3 27 -16
8z"/>
<path d="M3618 4023 c-18 -15 -35 -30 -38 -33 -7 -9 -130 -102 -165 -126 -17
-11 -41 -29 -54 -40 -55 -44 -221 -230 -221 -247 0 -5 15 -5 33 -2 28 7 62 30
135 94 12 11 22 17 22 14 0 -9 185 181 263 270 59 69 77 97 63 97 -3 0 -19
-12 -38 -27z"/>
<path d="M1740 3950 c-13 -8 -13 -10 2 -10 9 0 20 5 23 10 8 13 -5 13 -25 0z"/>
<path d="M1678 3913 c7 -3 16 -2 19 1 4 3 -2 6 -13 5 -11 0 -14 -3 -6 -6z"/>
<path d="M1400 3794 l-25 -15 25 7 c14 3 29 10 35 15 15 14 -7 10 -35 -7z"/>
<path d="M1305 3756 c-135 -60 -215 -99 -210 -104 4 -5 88 30 199 84 28 13 56
24 63 24 7 0 13 5 13 10 0 13 -7 12 -65 -14z"/>
<path d="M6404 3745 c-18 -14 -18 -16 -1 -29 9 -7 17 -18 17 -25 0 -6 7 -11
15 -11 19 0 20 53 2 69 -10 8 -19 7 -33 -4z"/>
<path d="M7066 3695 c-4 -13 -10 -14 -26 -5 -15 8 -20 8 -20 -1 0 -8 -11 -9
-31 -5 -25 5 -30 3 -27 -11 4 -19 65 -56 79 -47 6 3 32 -12 59 -35 49 -42 73
-54 50 -26 -23 28 4 40 30 13 l22 -23 -7 40 c-3 22 -8 49 -10 61 -6 25 -53 50
-69 34 -14 -14 -26 -12 -26 5 0 20 -16 19 -24 0z"/>
<path d="M5569 3593 c38 -45 32 -37 106 -142 97 -135 142 -200 211 -306 231
-351 224 -342 284 -369 74 -33 160 -46 313 -46 126 0 128 0 152 26 14 15 25
31 25 36 0 5 9 21 19 36 11 15 23 42 26 61 10 48 -14 37 -45 -23 -39 -72 -60
-84 -154 -85 -45 0 -86 3 -93 7 -6 4 -35 43 -64 87 -51 78 -253 295 -264 283
-3 -3 29 -45 72 -94 67 -77 158 -183 212 -247 21 -26 2 -36 -57 -29 -99 10
-121 31 -327 314 -78 108 -221 284 -349 431 -27 32 -56 67 -64 78 -7 10 -18
19 -24 19 -5 0 4 -17 21 -37z"/>
<path d="M965 3600 c-13 -6 -15 -9 -5 -9 8 0 22 4 30 9 18 12 2 12 -25 0z"/>
<path d="M754 3496 c-231 -116 -629 -311 -696 -341 -48 -20 -58 -29 -58 -49
l0 -25 48 22 c26 12 115 58 197 101 83 43 218 114 300 156 201 103 299 156
354 191 84 52 18 28 -145 -55z"/>
<path d="M7122 3526 c-23 -13 -51 -48 -52 -64 0 -7 7 -21 16 -29 16 -17 12
-62 -8 -74 -7 -5 -7 -8 1 -10 6 -3 1 -24 -16 -57 -22 -45 -24 -56 -14 -76 7
-12 11 -40 9 -62 -3 -35 -6 -39 -29 -37 -31 2 -59 -34 -37 -48 18 -12 38 -11
38 1 0 16 22 12 36 -7 7 -10 14 -29 14 -43 0 -14 4 -32 10 -40 6 -9 5 -17 -3
-22 -8 -5 -7 -8 5 -8 9 0 20 5 23 10 10 15 55 12 61 -5 3 -8 1 -28 -4 -45 -10
-27 -9 -30 9 -30 16 0 19 7 19 43 0 24 -5 48 -12 55 -9 9 -9 12 0 12 9 0 12
67 12 274 l0 273 -31 -1 c-16 -1 -38 -5 -47 -10z"/>
<path d="M6287 3055 c9 -15 67 -85 175 -209 36 -42 47 -26 15 22 -50 77 -223
247 -190 187z"/>
<path d="M30 2310 c-12 -8 -11 -10 8 -10 12 0 22 5 22 10 0 13 -11 13 -30 0z"/>
<path d="M80 2242 c0 -27 -38 -72 -61 -72 -18 0 -19 -12 -19 -445 0 -351 3
-443 12 -440 7 3 20 0 28 -5 13 -9 11 -14 -13 -35 l-27 -24 0 -396 c1 -373 2
-395 19 -395 10 0 23 11 29 25 13 28 34 32 51 11 10 -12 8 -19 -11 -38 l-23
-23 25 -3 c13 -2 26 1 28 7 2 6 13 11 23 11 17 0 20 6 17 42 -3 38 -6 43 -36
50 -17 5 -32 13 -32 18 0 13 27 13 35 -1 4 -5 19 -7 34 -4 20 4 32 0 45 -14
10 -11 15 -24 12 -30 -4 -5 -2 -12 4 -16 5 -3 10 -19 10 -36 0 -18 5 -29 14
-29 14 0 26 29 26 68 0 32 36 30 44 -3 4 -16 13 -25 25 -25 22 0 32 20 24 48
-3 14 2 24 16 32 25 13 41 6 41 -20 0 -19 25 -34 41 -25 5 4 18 -3 30 -13 17
-17 25 -18 49 -9 25 10 31 8 48 -14 14 -17 17 -28 10 -36 -11 -14 8 -83 23
-83 5 0 9 -6 9 -14 0 -21 41 -32 54 -14 12 15 114 13 131 -3 12 -12 75 -12 75
1 0 5 -8 14 -17 19 -16 9 -16 10 5 11 23 0 26 -7 22 -67 -1 -18 3 -33 9 -33 6
0 11 -6 11 -14 0 -14 28 -31 44 -27 6 1 32 -1 59 -4 46 -7 48 -8 42 -33 -5
-22 -4 -24 9 -13 9 8 27 11 41 9 21 -4 28 0 41 28 10 20 26 37 40 40 13 3 24
12 24 20 0 8 7 14 16 14 10 0 14 -6 10 -15 -4 -12 3 -15 29 -15 36 0 56 16 31
26 -14 5 -14 9 0 35 12 24 21 29 52 30 20 1 40 1 45 0 17 -3 5 17 -18 27 -53
24 -22 36 43 16 6 -2 12 1 12 6 0 5 10 10 23 12 12 2 20 8 17 13 -3 6 -9 8
-15 6 -5 -2 -29 -3 -51 -3 -30 1 -47 -4 -59 -18 -10 -11 -23 -20 -30 -20 -6 0
-18 -14 -26 -32 -14 -32 -31 -39 -93 -38 -16 0 -38 -7 -48 -17 -19 -17 -19
-17 -13 10 5 19 3 28 -8 32 -10 4 -15 23 -15 63 -2 67 -14 117 -29 117 -6 0
-15 3 -19 8 -11 11 -39 8 -69 -7 -20 -11 -34 -12 -58 -4 -18 6 -45 11 -62 12
-27 1 -30 4 -27 29 2 18 -1 27 -10 27 -20 0 -60 39 -52 51 3 6 -4 21 -16 34
-44 47 -10 90 53 66 23 -9 27 -16 27 -51 0 -34 4 -42 28 -53 15 -6 32 -17 37
-24 6 -7 34 -15 63 -19 49 -6 52 -5 52 15 0 14 6 21 20 21 29 0 29 70 -1 88
-15 10 -20 20 -16 39 4 23 2 25 -24 19 -40 -8 -65 18 -46 48 9 13 13 41 10 74
-1 30 1 62 7 71 6 12 5 22 -2 29 -9 9 -9 12 0 12 7 0 12 6 12 13 0 6 16 20 35
29 l34 17 15 -27 c8 -15 21 -42 30 -59 17 -37 30 -41 54 -17 15 15 14 18 -7
35 -29 24 -24 48 14 69 32 17 41 45 15 45 -28 1 -41 15 -30 35 7 13 6 19 -6
24 -20 8 -24 8 -23 -1 3 -21 -3 -22 -28 -6 -35 22 -43 33 -43 61 0 20 -20 29
-54 23 -5 -1 -13 3 -17 10 -10 16 -39 20 -39 6 0 -7 5 -19 10 -27 6 -10 4 -20
-6 -32 -9 -9 -13 -21 -10 -26 7 -12 -16 -22 -48 -22 -12 0 -26 -4 -32 -9 -5
-5 -30 -12 -55 -16 -44 -7 -47 -6 -51 19 -6 29 13 45 86 74 l45 17 -14 29
c-19 35 -19 33 8 40 18 5 20 8 7 16 -10 6 -11 10 -2 10 6 0 12 9 12 19 0 11 6
21 13 24 6 2 -3 7 -22 12 -19 4 -49 16 -67 25 -18 10 -47 20 -66 22 -28 2 -33
7 -33 28 0 14 -12 38 -27 53 -22 23 -31 26 -48 17 -11 -5 -29 -15 -40 -20 -11
-6 -27 -10 -35 -10 -8 0 -15 -4 -15 -9 0 -14 -101 -43 -126 -37 -21 6 -24 12
-23 54 1 26 -2 58 -5 72 -6 20 0 32 23 58 17 18 31 37 31 42 0 14 -39 32 -52
24 -8 -5 -9 -1 -4 12 4 10 4 15 0 11 -11 -10 -44 23 -44 44 0 10 5 21 10 24 6
3 10 16 10 28 0 17 -2 19 -9 8 -7 -11 -14 -10 -38 7 -25 18 -44 63 -25 61 20
-3 32 2 27 11 -4 6 -13 9 -22 8 -8 -2 -20 6 -27 17 -6 11 -16 23 -23 28 -8 5
-8 14 0 37 10 25 9 33 -3 40 -8 5 -18 6 -24 3 -5 -3 -7 -2 -4 3 3 5 2 19 -2
30 -8 21 -32 29 -107 37 -12 1 -27 7 -33 13 -15 15 4 61 27 67 17 4 17 5 0 6
-15 1 -17 7 -11 39 3 20 7 41 8 46 0 6 -7 12 -16 14 -12 2 -18 -3 -18 -16z
m117 -358 c10 -26 -14 -64 -41 -64 -24 0 -36 16 -36 50 0 30 66 43 77 14z
m-141 -181 c-10 -10 -19 5 -10 18 6 11 8 11 12 0 2 -7 1 -15 -2 -18z m111
-150 c3 -7 -7 -17 -20 -22 -34 -13 -26 -51 11 -51 l25 0 -23 -25 c-13 -14 -27
-25 -31 -25 -4 0 -17 16 -29 35 -22 35 -20 55 6 55 8 0 14 8 14 18 0 10 3 22
7 26 10 10 36 3 40 -11z m-65 -197 c-3 -17 -2 -18 12 -7 18 15 79 9 102 -10
18 -15 18 -73 0 -88 -10 -8 -12 -24 -9 -53 5 -32 3 -40 -8 -36 -8 3 -13 17
-12 32 1 20 -5 30 -28 41 -17 9 -29 24 -29 35 0 38 -20 56 -56 52 -24 -3 -36
0 -40 12 -12 30 4 47 38 44 26 -2 32 -7 30 -22z m628 -3 c0 -17 -36 -43 -60
-43 -30 0 -45 21 -27 39 12 12 87 16 87 4z m108 -79 c4 -25 -32 -59 -53 -51
-8 4 -15 18 -15 31 0 43 62 62 68 20z m-188 -29 c0 -8 -9 -15 -20 -15 -20 0
-26 11 -13 23 12 13 33 7 33 -8z m-555 -125 c3 -5 0 -18 -7 -29 -10 -16 -10
-23 0 -33 18 -18 15 -42 -7 -62 -35 -32 -55 -17 -62 44 -3 30 -2 63 3 73 9 18
62 24 73 7z m226 -31 c12 -5 23 -2 35 12 22 25 59 24 84 -1 27 -27 25 -46 -6
-75 -30 -27 -45 -30 -75 -14 -18 9 -22 6 -32 -20 -6 -17 -16 -31 -22 -31 -6 0
-29 -18 -50 -40 -21 -22 -44 -40 -51 -40 -7 0 -17 14 -23 30 -5 17 -18 31 -28
32 -10 0 -25 1 -33 2 -8 1 -16 9 -18 19 -4 19 13 23 23 7 5 -8 11 -7 21 1 18
15 18 29 -1 29 -22 0 -18 40 6 69 19 23 20 23 33 6 15 -21 51 -13 43 9 -13 34
31 36 94 5z m669 -11 c0 -6 -7 -19 -16 -29 -12 -13 -13 -22 -5 -37 15 -27 3
-55 -18 -46 -9 4 -35 8 -58 8 -22 1 -45 4 -49 8 -10 11 16 38 37 38 13 0 19 7
19 23 0 13 9 27 23 33 30 16 67 17 67 2z m-185 -28 c3 -5 4 -14 0 -20 -8 -13
-35 -1 -35 16 0 16 26 19 35 4z m-90 -80 c8 -13 -26 -63 -36 -53 -12 12 2 63
17 63 7 0 16 -4 19 -10z m220 -60 c3 -5 -1 -10 -10 -10 -9 0 -13 5 -10 10 3 6
8 10 10 10 2 0 7 -4 10 -10z m-560 -46 c0 -36 -24 -39 -42 -4 -11 21 -10 26 5
32 27 11 37 3 37 -28z m415 -14 c0 -5 -4 -10 -10 -10 -5 0 -10 5 -10 10 0 6 5
10 10 10 6 0 10 -4 10 -10z m-150 -109 c0 -19 -8 -32 -26 -41 -15 -8 -28 -26
-31 -43 -4 -19 -15 -32 -32 -38 -34 -14 -37 -12 -33 17 2 14 -2 31 -8 39 -7 8
-7 15 -1 19 5 4 12 2 16 -4 3 -5 15 -10 26 -10 13 0 19 7 19 23 0 38 11 66 29
70 28 6 41 -4 41 -32z m-192 11 c3 -10 -4 -13 -24 -10 -15 2 -29 9 -32 16 -3
10 4 13 24 10 15 -2 29 -9 32 -16z m-74 -167 c3 -8 -3 -19 -14 -25 -25 -13
-39 -13 -36 3 5 35 39 50 50 22z m86 -35 c0 -7 7 -7 21 0 26 14 69 5 69 -14 0
-14 -45 -56 -61 -56 -4 0 -11 10 -15 23 -3 12 -13 30 -22 40 -9 11 -11 17 -4
17 7 0 12 -5 12 -10z m-120 -31 c0 -5 -9 -9 -20 -9 -22 0 -27 16 -7 23 15 5
27 -1 27 -14z m315 -13 c0 -21 -44 -39 -65 -26 -9 5 -5 13 11 29 27 25 54 24
54 -3z m98 -35 l25 -10 -16 -45 c-16 -44 -42 -63 -42 -31 0 8 -9 15 -20 15
-11 0 -20 5 -20 11 0 15 21 53 34 61 14 10 10 10 39 -1z m267 -191 c0 -5 -7
-10 -15 -10 -8 0 -15 5 -15 10 0 6 7 10 15 10 8 0 15 -4 15 -10z"/>
<path d="M915 1030 c3 -5 13 -10 21 -10 8 0 14 5 14 10 0 6 -9 10 -21 10 -11
0 -17 -4 -14 -10z"/>
<path d="M355 1840 c3 -5 11 -10 16 -10 6 0 7 5 4 10 -3 6 -11 10 -16 10 -6 0
-7 -4 -4 -10z"/>
<path d="M545 1507 c-4 -10 -5 -21 -1 -24 10 -10 18 4 13 24 -4 17 -4 17 -12
0z"/>
<path d="M1160 830 c0 -5 6 -10 14 -10 8 0 18 5 21 10 3 6 -3 10 -14 10 -12 0
-21 -4 -21 -10z"/>
<path d="M1097 743 c-12 -11 -8 -23 8 -23 8 0 15 -7 15 -15 0 -8 9 -15 20 -15
11 0 20 7 20 15 0 10 10 15 33 15 24 0 28 3 17 10 -8 5 -25 7 -36 4 -12 -3
-25 -1 -28 5 -8 12 -39 15 -49 4z"/>
<path d="M1512 613 c-6 -2 -10 -9 -7 -13 7 -11 35 -2 35 11 0 10 -8 10 -28 2z"/>
<path d="M1452 568 c-20 -20 -14 -34 23 -54 38 -20 52 -43 34 -54 -7 -5 -7
-10 -2 -13 16 -10 54 37 47 56 -4 12 -1 17 10 17 10 0 16 8 16 21 0 15 -5 19
-19 14 -11 -3 -25 1 -34 10 -19 18 -58 20 -75 3z"/>
<path d="M1600 566 c0 -9 30 -14 35 -6 4 6 -3 10 -14 10 -12 0 -21 -2 -21 -4z"/>
<path d="M1078 553 c7 -3 16 -2 19 1 4 3 -2 6 -13 5 -11 0 -14 -3 -6 -6z"/>
<path d="M1620 496 c0 -9 5 -16 10 -16 6 0 10 4 10 9 0 6 -4 13 -10 16 -5 3
-10 -1 -10 -9z"/>
<path d="M1405 480 c-3 -5 -2 -10 3 -10 5 0 19 -9 32 -20 30 -26 48 -26 24 1
-26 29 -51 41 -59 29z"/>
<path d="M410 460 c-12 -7 -12 -12 -3 -21 10 -10 14 -9 19 5 8 22 2 27 -16 16z"/>
<path d="M400 401 c0 -28 14 -33 44 -17 l26 13 -26 11 c-35 17 -44 15 -44 -7z"/>
<path d="M1536 378 c-9 -10 -16 -23 -16 -28 0 -13 27 -13 35 1 4 6 15 13 25
17 17 6 17 8 -5 18 -19 9 -26 8 -39 -8z"/>
<path d="M550 359 c0 -5 5 -7 10 -4 6 3 10 8 10 11 0 2 -4 4 -10 4 -5 0 -10
-5 -10 -11z"/>
<path d="M1410 295 c-10 -12 -10 -15 3 -15 19 0 31 16 18 24 -5 3 -14 -1 -21
-9z"/>
<path d="M1325 250 c-3 -5 3 -10 14 -10 12 0 21 5 21 10 0 6 -6 10 -14 10 -8
0 -18 -4 -21 -10z"/>
<path d="M115 140 c-3 -5 -1 -10 4 -10 6 0 11 5 11 10 0 6 -2 10 -4 10 -3 0
-8 -4 -11 -10z"/>
</g>
</svg>
